<?xml version="1.0" encoding="UTF-8"?><svg id="Layer_2" xmlns="http://www.w3.org/2000/svg" width="511.14" height="329.3" viewBox="0 0 511.14 329.3"><defs><style>.cls-1{fill:#fff;stroke-width:0px;}</style></defs><g id="Layer_1-2"><path class="cls-1" d="m451.93,260.29c-.25.25-.37.49-.37.86v66.92c0,.25.12.62.37.86s.49.37.86.37h41.58c.37,0,.62-.12.86-.37s.37-.62.37-.86v-4.8c0-.37-.12-.74-.37-.86-.25-.25-.49-.37-.86-.37h-35.43v-60.9c-.12-.37-.25-.62-.37-.86-.25-.25-.62-.37-.86-.37h-4.92c-.37,0-.62.12-.86.37Z"/><path class="cls-1" d="m326.93,261.76c-.25-.25-.49-.37-.86-.37h-4.31c-.37,0-.62.12-.86.37-.25.12-.37.49-.37.86v65.32c0,.37.12.62.37.86s.49.37.86.37h4.31c.37,0,.62-.12.86-.37s.37-.49.37-.86v-27.43c4.8,4.92,10.83,7.38,17.96,7.38s12.67-2.34,17.47-7.01,7.14-10.46,7.14-16.98c0-4.31-1.11-8.24-3.2-12.06-2.09-3.69-5.04-6.64-8.86-8.73q0-.12-.12-.25c-3.81-2.09-8-3.08-12.55-3.08-4.31,0-8,.86-11.19,2.46-2.21,1.23-4.43,2.95-6.64,5.17v-4.8c0-.37-.12-.74-.37-.86Zm18.33,4.92c4.92,0,9.1,1.72,12.55,5.04,3.44,3.44,5.17,7.38,5.17,12.18s-1.72,8.73-5.17,12.18c-3.57,3.32-7.75,5.04-12.55,5.04-5.04,0-9.35-1.72-12.67-5.17-3.57-3.32-5.29-7.38-5.29-12.06s1.72-8.73,5.29-12.18c3.32-3.32,7.63-5.04,12.67-5.04Z"/><path class="cls-1" d="m88.55,260.53c-9.6,0-17.72,3.32-24.48,9.96-2.58,2.71-4.8,5.54-6.4,8.61-2.34,4.67-3.57,9.84-3.57,15.5s1.23,10.7,3.57,15.38c1.6,3.08,3.81,5.91,6.4,8.61,6.77,6.64,14.89,9.96,24.48,9.96s17.47-3.32,24.24-9.96c6.64-6.64,9.96-14.64,9.96-23.99s-3.32-17.47-9.96-24.11c-6.77-6.64-14.89-9.96-24.24-9.96Zm26.94,34.08c0,7.26-2.58,13.66-7.87,18.82-5.29,5.29-11.69,7.87-19.19,7.87s-13.9-2.71-19.07-7.87c-5.41-5.29-8-11.56-8-18.82s2.58-13.66,8-18.82c5.17-5.29,11.56-7.87,19.07-7.87s13.9,2.58,19.19,7.75c5.29,5.17,7.87,11.44,7.87,18.95Z"/><path class="cls-1" d="m227.68,270.25c0,.12.12.12.12.12,2.58,2.21,3.94,4.55,4.06,7.26.12,1.23.37,2.21,1.11,2.83q0,.12.12.12c.49.62,1.35.86,2.34.98.98,0,1.85-.37,2.58-1.11v-.12c.62-.74.86-1.72.86-3.08v-.12l-.12-1.48v-.37l-.25-.98v-.25c-.98-3.2-2.46-5.78-4.55-7.75v-.12c-4.92-4.18-10.58-6.27-17.22-6.27s-11.93,1.85-15.87,5.41c-4.18,3.69-6.27,8.12-6.27,13.29s1.85,9.35,5.54,12.06c3.32,2.71,8.98,4.8,16.85,6.03,5.29.98,8.86,1.85,10.58,2.46h0c1.48.62,2.83,1.48,3.94,2.58,0,0,0,.12.12.12.37.49.62.86.98,1.35l.12.12c1.11,1.6,1.6,3.44,1.6,5.54,0,3.44-1.48,6.52-4.43,9.23-3.2,2.58-7.5,3.94-12.79,3.94s-9.72-1.23-12.92-3.81h.12c-3.2-2.46-4.8-5.17-5.04-8.24,0-1.35-.37-2.21-.98-2.71v-.12c-.62-.74-1.48-.98-2.46-.98-1.11-.12-1.97.25-2.58,1.11l-.12.12c-.37.49-.62,1.11-.74,1.97-.12,0-.12.12,0,.25.12,4.92,1.72,8.86,4.8,11.69q.12.12.25.12c4.92,5.17,11.44,7.63,19.68,7.63,7.38,0,13.16-1.97,17.59-5.78,4.43-3.94,6.64-8.61,6.64-14.15,0-3.32-.62-6.15-1.97-8.61q0-.12-.12-.12c-.12-.37-.25-.62-.49-.86h0c-1.72-2.71-4.31-4.8-7.63-6.27-2.46-1.11-6.77-2.21-13.16-3.2-3.57-.62-6.27-1.23-8-1.72-1.6-.62-3.08-1.23-4.31-2.09-1.23-.74-2.09-1.85-2.83-3.08l-.12-.12c-.62-1.35-.98-2.83-.98-4.31,0-3.2,1.23-5.91,3.94-8.24s6.52-3.57,11.19-3.57c4.43,0,8,1.11,10.83,3.32Z"/><path class="cls-1" d="m474.8,65.02l23.8-43.2c-15.9-12.1-35.1-19-57.8-20.7-11.5-1.5-22.8-1.5-33.9,0-7.1,1-14.1,2.7-21.1,5-24.4,10-39.5,24.5-45.4,43.4-5.2,19.1-4.5,35.6,2.2,49.3,7,15.5,25.8,26.9,56.2,34.2,10.7,1.8,20,4.3,28,7.6,6.4,2,11.7,6.1,15.7,12.1,1.3,1.8,2.1,3.8,2.3,6,.8,7.5-1.1,13.2-5.6,17.3-7.6,8-17.4,11.3-29.2,10-17.3-2.9-35.7-13.3-55.2-31.1l-30,44.6L234.4.82l-75.2,165.6c20-11,39.3-16.3,58.1-15.8l17.9-40.7,26.5,60.8c-60.2-12.1-106,7.6-137.3,59.1V57.22h54.9V2.12H0v55.5h54v176.8h129.1l.7-.7c30-27.1,63-27.1,99.1,0,.3.2.5.4.9.7h56.8l-14.1-31.3c21.7,18.2,46,28.4,72.7,30.6,7.6.7,15.4.7,23.4,0,.7,0,1.5-.1,2.2-.2,43.6-2.8,71.6-22.7,84.2-59.5,5.6-25.3.2-46-16.2-62.2-12.3-11.4-32-19.4-59-23.9-20.9-4.8-31.6-12.4-32.2-22.7.8-16.1,15.7-21.6,44.6-16.3,10.9,2,20.4,7.4,28.6,16.1Z"/></g></svg>