<?xml version="1.0" encoding="UTF-8"?><svg id="Layer_1" xmlns="http://www.w3.org/2000/svg" width="511.14" height="398.38" viewBox="0 0 511.14 398.38"><defs><style>.cls-1{fill:#1f6598;}.cls-1,.cls-2{stroke-width:0px;}.cls-2{fill:#df2120;}</style></defs><path class="cls-2" d="m474.8,65.03l23.8-43.2c-15.9-12.1-35.1-19-57.8-20.7-11.5-1.5-22.8-1.5-33.9,0-7.1,1-14.1,2.7-21.1,5-24.4,10-39.5,24.5-45.4,43.4-5.2,19.1-4.5,35.6,2.2,49.3,7,15.5,25.8,26.9,56.2,34.2,10.7,1.8,20,4.3,28,7.6,6.4,2,11.7,6.1,15.7,12.1,1.3,1.8,2.1,3.8,2.3,6,.8,7.5-1.1,13.2-5.6,17.3-7.6,8-17.4,11.3-29.2,10-17.3-2.9-35.7-13.3-55.2-31.1l-30,44.6L234.4.83l-75.2,165.6c20-11,39.3-16.3,58.1-15.8l17.9-40.7,26.5,60.8c-60.2-12.1-106,7.6-137.3,59.1V57.23h54.9V2.13H0v55.5h54v176.8h129.1l.7-.7c30-27.1,63-27.1,99.1,0,.3.2.5.4.9.7h56.8l-14.1-31.3c21.7,18.2,46,28.4,72.7,30.6,7.6.7,15.4.7,23.4,0,.7,0,1.5-.1,2.2-.2,43.6-2.8,71.6-22.7,84.2-59.5,5.6-25.3.2-46-16.2-62.2-12.3-11.4-32-19.4-59-23.9-20.9-4.8-31.6-12.4-32.2-22.7.8-16.1,15.7-21.6,44.6-16.3,10.9,2,20.4,7.4,28.6,16.1h0Z"/><path class="cls-2" d="m54.45,323.54c0-1.54.18-3.22.54-5.04,1.18-5.63,3.54-9.68,7.07-12.13,3.26-2.27,7.89-3.41,13.87-3.41h24.21c14.24,0,21.36,6.86,21.36,20.58v54.25c0,13.72-7.18,20.58-21.53,20.58h-24.12c-6.27,0-10.95-1.05-14.04-3.16-3.45-2.47-5.72-6.63-6.81-12.49-.36-2.01-.55-3.66-.55-4.94v-54.25h0Zm20.44,47.7c0,4.36,2.27,6.54,6.81,6.54h12.54c2.45,0,4.2-.38,5.25-1.16,1.04-.77,1.57-2.34,1.57-4.7v-41.84c0-2.45-.51-4.16-1.52-5.11-1.01-.95-2.8-1.43-5.37-1.43h-12.67c-2.57,0-4.32.46-5.23,1.36-.92.91-1.38,2.64-1.38,5.18v41.16Z"/><path class="cls-2" d="m132.96,321.78c0-1.72.18-3.32.55-4.77,2.36-9.36,8.68-14.04,18.95-14.04h41.71v20.58h-36.24c-2.01,0-3.42.87-4.24,2.61-.18.92-.27,1.6-.27,2.06v6.32c0,.64.04,1.1.14,1.38.36,2.38,2.05,3.75,5.06,4.12.27.09.73.14,1.37.14h14.91c10.66,0,16.96,4.95,18.87,14.86.27,1.45.41,2.77.41,3.95v19.22c0,6.36-1.83,11.31-5.48,14.86-3.66,3.54-8.64,5.32-14.96,5.32h-40.75v-20.58h35.83l1.23-.41c2.37-.82,3.56-2.54,3.56-5.18v-6.82c0-2.73-1.45-4.27-4.36-4.63h-17.04c-7,0-12.36-2.82-16.08-8.45-2.09-3.18-3.14-6.59-3.14-10.22v-20.31h-.03Z"/><path class="cls-2" d="m205.74,398.38v-95.41h47.7c6,0,10.9,1.68,14.72,5.04,3.82,3.36,5.72,8,5.72,13.9v23.44c0,5.72-1.73,10.27-5.18,13.63-3.45,3.36-8.04,5.04-13.77,5.04h-28.76v34.35h-20.44,0Zm40.48-55.34c2.54,0,4.27-.23,5.18-.68,1.36-.73,2.04-2.23,2.04-4.5v-9.4c-.27-2.82-2.04-4.45-5.32-4.91h-21.94v19.49h20.04Z"/><path class="cls-2" d="m283.56,375.07v-72.1h20.44v70.46c0,2.91,1.73,4.36,5.18,4.36h36.39l-.14,20.58h-38.03c-1.36,0-2.55-.04-3.54-.14-7.36-.63-12.59-2.79-15.67-6.47-3.09-3.68-4.63-9.24-4.63-16.7h0Z"/><path class="cls-1" d="m419.95,293.8l2.3-1.33c.68-.39.91-1.26.52-1.94s-1.26-.91-1.94-.52l-.19.11,1.48-7.88,2.31-1.34c.68-.39.91-1.26.52-1.94s-1.26-.91-1.94-.52l-.2.11,1.75-9.34c6.28-3.39,11.26-6.09,12.4-6.75,4.51-2.61,4.82-8.29,4.42-8.98-.4-.69-5.49-3.26-9.99-.65-1.14.66-5.96,3.62-12.03,7.38l-8.96-3.14.2-.11c.68-.39.91-1.26.52-1.94s-1.26-.91-1.94-.52l-2.31,1.34-7.57-2.65.19-.11c.68-.39.91-1.26.52-1.94s-1.26-.91-1.94-.52l-2.3,1.33-11.7-4.1-3.4,1.97,20.13,12.12,4.9,6.74c-7.39,5.19-18.89,12.96-18.89,12.96l-11.47-4.55-2.28,1.32,7.13,7.53c-1.21.79-1.12,1.75-1.12,1.75-2.07,1.2-1.76,2.87-1.76,2.87,0,0,1.28,1.11,3.37-.09,0,0,.79.57,2.07-.09l2.97,9.93,2.28-1.32,1.76-12.21s12.46-6.1,20.65-9.91l3.39,7.61.46,23.5,3.4-1.97,2.29-12.19h0Z"/><path class="cls-1" d="m65.69,357.63c-.51-.18-.85-.72-1.24-1.09-2.58-2.94-4.81-6.16-6.94-9.44-7.19-11.44-12.66-24.01-14.43-37.59-5.7-46.71,42.42-62.39,80.16-66.04,11.04-1.23,22.74-1.32,33.84-.88,40.4,2.06,79.52,14.41,117.35,27.82,25.08,8.53,50.04,18.66,76.51,21.69,0,0,3.29.33,3.29.33l3.3.12c2.82.15,4.03.04,6.62-.05,2.86-.05,4.02-.35,6.61-.62,3.07-.42,3.78-.79,6.53-1.32,0,0-3.2.97-3.2.97-1.07.3-2.13.7-3.23.87,0,0-3.29.66-3.29.66-.83.22-2.42.4-3.32.49,0,0-3.35.36-3.35.36-1.12.13-2.24.09-3.36.15,0,0-3.37.1-3.37.1,0,0-3.36-.11-3.36-.11-26.89-1.38-52.69-10.59-78.11-18.44-16.92-5.35-33.81-10.77-50.97-15.2-42.17-11.1-87.46-16.26-130.03-4.56-26.34,7.32-47.72,23.43-45.21,53.34.98,13.04,5.75,25.84,11.94,37.39,1.85,3.41,3.81,6.78,6.13,9.89.35.4.66.96,1.13,1.17h0Z"/><path class="cls-1" d="m58.43,295.43c3.38-17.29,21.3-26.23,36.69-30.83,32.25-9.04,66.36-7.12,98.99-1.53,16.3,2.95,32.37,7.16,47.84,12.94-39.86-9.25-80.88-15.09-121.77-11.58-21.4,2.2-53.93,7.74-61.74,31h0Z"/></svg>