<svg id="tas_logo" xmlns="http://www.w3.org/2000/svg" width="511.14" height="394.38" viewBox="0 0 511.14 394.38"><defs><style>.cls-1{fill:#1f6598;}.cls-1,.cls-2{stroke-width:0px;}.cls-2{fill:#df2120;}</style></defs><path class="cls-2" d="m474.8,65.03l23.8-43.2c-15.9-12.1-35.1-19-57.8-20.7-11.5-1.5-22.8-1.5-33.9,0-7.1,1-14.1,2.7-21.1,5-24.4,10-39.5,24.5-45.4,43.4-5.2,19.1-4.5,35.6,2.2,49.3,7,15.5,25.8,26.9,56.2,34.2,10.7,1.8,20,4.3,28,7.6,6.4,2,11.7,6.1,15.7,12.1,1.3,1.8,2.1,3.8,2.3,6,.8,7.5-1.1,13.2-5.6,17.3-7.6,8-17.4,11.3-29.2,10-17.3-2.9-35.7-13.3-55.2-31.1l-30,44.6L234.4.83l-75.2,165.6c20-11,39.3-16.3,58.1-15.8l17.9-40.7,26.5,60.8c-60.2-12.1-106,7.6-137.3,59.1V57.23h54.9V2.13H0v55.5h54v176.8h129.1l.7-.7c30-27.1,63-27.1,99.1,0,.3.2.5.4.9.7h56.8l-14.1-31.3c21.7,18.2,46,28.4,72.7,30.6,7.6.7,15.4.7,23.4,0,.7,0,1.5-.1,2.2-.2,43.6-2.8,71.6-22.7,84.2-59.5,5.6-25.3.2-46-16.2-62.2-12.3-11.4-32-19.4-59-23.9-20.9-4.8-31.6-12.4-32.2-22.7.8-16.1,15.7-21.6,44.6-16.3,10.9,2,20.4,7.4,28.6,16.1h0Z"/><path class="cls-2" d="m54.45,319.55c0-1.54.18-3.22.54-5.04,1.18-5.63,3.54-9.68,7.07-12.13,3.26-2.27,7.89-3.41,13.87-3.41h24.21c14.24,0,21.36,6.86,21.36,20.58v54.25c0,13.72-7.18,20.58-21.53,20.58h-24.12c-6.27,0-10.95-1.05-14.04-3.16-3.45-2.47-5.72-6.63-6.81-12.49-.36-2.01-.55-3.66-.55-4.94v-54.25Zm20.44,47.7c0,4.36,2.27,6.54,6.81,6.54h12.54c2.45,0,4.2-.38,5.25-1.16,1.04-.77,1.57-2.34,1.57-4.7v-41.84c0-2.45-.51-4.16-1.52-5.11-1.01-.95-2.8-1.43-5.37-1.43h-12.67c-2.57,0-4.32.46-5.23,1.36-.92.91-1.38,2.64-1.38,5.18v41.16Z"/><path class="cls-2" d="m132.96,317.78c0-1.72.18-3.32.55-4.77,2.36-9.36,8.68-14.04,18.95-14.04h41.71v20.58h-36.24c-2.01,0-3.42.87-4.24,2.61-.18.92-.27,1.6-.27,2.06v6.32c0,.64.04,1.1.14,1.38.36,2.38,2.05,3.75,5.06,4.12.27.09.73.14,1.37.14h14.91c10.66,0,16.96,4.95,18.87,14.86.27,1.45.41,2.77.41,3.95v19.22c0,6.36-1.83,11.31-5.48,14.86-3.66,3.54-8.64,5.32-14.96,5.32h-40.75v-20.58h35.83l1.23-.41c2.37-.82,3.56-2.54,3.56-5.18v-6.82c0-2.73-1.45-4.27-4.36-4.63h-17.04c-7,0-12.36-2.82-16.08-8.45-2.09-3.18-3.14-6.59-3.14-10.22v-20.31Z"/><path class="cls-2" d="m205.74,394.38v-95.41h47.7c6,0,10.9,1.68,14.72,5.04,3.82,3.36,5.72,8,5.72,13.9v23.44c0,5.72-1.73,10.27-5.18,13.63-3.45,3.36-8.04,5.04-13.77,5.04h-28.76v34.35h-20.44Zm40.48-55.34c2.54,0,4.27-.23,5.18-.68,1.36-.73,2.04-2.23,2.04-4.5v-9.4c-.27-2.82-2.04-4.45-5.32-4.91h-21.94v19.49h20.04Z"/><path class="cls-2" d="m283.56,371.07v-72.1h20.44v70.46c0,2.91,1.73,4.36,5.18,4.36h36.39l-.14,20.58h-38.03c-1.36,0-2.55-.04-3.54-.14-7.36-.63-12.59-2.79-15.67-6.47-3.09-3.68-4.63-9.24-4.63-16.7Z"/><path class="cls-1" d="m68.33,348.58c-15.39-18.42-32.95-49.42-17.2-72.3,15.55-21.04,50.05-22.74,74.02-22.77,51.73,1.08,102.44,12.99,152.13,26.33,16.47,4.38,32.97,8.69,49.59,12.48,14.51,3.24,29.1,6.71,43.98,7.62,2.1,0,4.31.19,6.29-.6-1.89,1.05-4.17,1.1-6.28,1.33-6.44.44-12.91-.02-19.33-.55-17.1-1.58-34.01-4.6-50.86-7.86-41.39-8.62-83.37-19.44-125.25-25.32-25.06-3.54-50.37-6.32-75.57-4.33-23.97,1.98-52.43,10.05-50.12,39.5,1.35,16.65,9.48,32.56,18.59,46.45h0Z"/><path class="cls-1" d="m55.56,295.81c3.01-39.29,89.56-29.43,116.52-25.14,25.37,3.96,50.48,9.67,75.02,17.17-33.58-5.97-67.04-12.3-101.01-15.33-16.83-1.52-33.84-2.31-50.66-.67-15.44,1.75-36.73,5.83-39.87,23.97h0Z"/><path class="cls-1" d="m418.33,310.93l2.52-.85c.74-.25,1.14-1.06.89-1.8s-1.06-1.14-1.8-.89l-.21.07,3-7.44,2.53-.86c.74-.25,1.14-1.06.89-1.8s-1.06-1.14-1.8-.89l-.22.07,3.55-8.81c6.82-2.09,12.24-3.76,13.48-4.18,4.93-1.67,6.36-7.18,6.1-7.94-.26-.76-4.74-4.27-9.67-2.6-1.25.42-6.56,2.38-13.25,4.87l-8.17-4.84.22-.07c.74-.25,1.14-1.06.89-1.8-.25-.74-1.06-1.14-1.8-.89l-2.53.86-6.9-4.09.21-.07c.74-.25,1.14-1.06.89-1.8-.25-.74-1.06-1.14-1.8-.89l-2.52.85-10.67-6.32-3.72,1.26,17.36,15.84,3.48,7.57c-8.27,3.64-21.07,8.99-21.07,8.99l-10.35-6.72-2.5.85,5.51,8.78c-1.34.54-1.44,1.5-1.44,1.5-2.27.77-2.29,2.47-2.29,2.47,0,0,1.04,1.34,3.32.57,0,0,.66.71,2.05.32l.96,10.32,2.5-.85,4.13-11.63s13.42-3.53,22.2-5.66l1.83,8.13-4.17,23.13,3.72-1.26,4.64-11.5Z"/></svg>